<?xml version="1.0" encoding="utf-8"?>
<!-- Generator: Adobe Illustrator 24.1.0, SVG Export Plug-In . SVG Version: 6.00 Build 0)  -->
<svg version="1.1" xmlns="http://www.w3.org/2000/svg" xmlns:xlink="http://www.w3.org/1999/xlink" x="0px" y="0px"
	 viewBox="0 0 32 32" style="enable-background:new 0 0 32 32;" xml:space="preserve">
<g id="Layer_2">
</g>
<g id="Layer_1">
	<path d="M15.8,4.4C7.4,4.4,0.5,9.2,0.5,15.1c0,2.9,1.7,5.6,4.4,7.5c-0.4,1.1-1.3,3-2.4,4.5c-0.6,0.8,0.2,1.9,1.2,1.7
		c3.1-0.8,6-2.4,7.6-3.4c1.4,0.3,2.9,0.5,4.5,0.5C24.2,25.8,31,21,31,15.1S24.2,4.4,15.8,4.4z M8.5,17.2c-1.2,0-2.1-0.9-2.1-2.1
		c0-1.2,0.9-2.1,2.1-2.1c1.2,0,2.1,0.9,2.1,2.1C10.6,16.3,9.7,17.2,8.5,17.2z M15.8,17.2c-1.2,0-2.1-0.9-2.1-2.1
		c0-1.2,0.9-2.1,2.1-2.1s2.1,0.9,2.1,2.1S16.9,17.2,15.8,17.2z M23,17.2c-1.2,0-2.1-0.9-2.1-2.1c0-1.2,0.9-2.1,2.1-2.1
		c1.2,0,2.1,0.9,2.1,2.1S24.2,17.2,23,17.2z"/>
</g>
</svg>
