<?xml version="1.0" encoding="utf-8"?>
<!-- Generator: Adobe Illustrator 24.1.0, SVG Export Plug-In . SVG Version: 6.00 Build 0)  -->
<svg version="1.1" id="Layer_1" xmlns="http://www.w3.org/2000/svg" xmlns:xlink="http://www.w3.org/1999/xlink" x="0px" y="0px"
	 viewBox="0 0 32 32" style="enable-background:new 0 0 32 32;" xml:space="preserve">
<style type="text/css">
	.st0{fill:#FFFFFF;}
</style>
<rect x="5.5" y="2" class="st0" width="21.2" height="25.7"/>
<g>
	<path d="M10.4,12.8c0.9,0,1.6-0.2,2-0.6c0.4-0.4,0.6-1,0.6-1.8c0-0.8-0.2-1.4-0.6-1.8c-0.4-0.4-1.1-0.6-2-0.6H8.2v6.6h1.3v-1.8
		H10.4z M9.6,9.3h0.8c0.4,0,0.8,0.1,1,0.3c0.2,0.2,0.3,0.4,0.3,0.8c0,0.4-0.1,0.7-0.3,0.9c-0.2,0.2-0.5,0.3-0.9,0.3H9.6V9.3z"/>
	<path d="M18.2,13.7c0.6-0.6,0.8-1.4,0.8-2.4c0-1-0.3-1.8-0.9-2.4C17.6,8.3,16.8,8,15.7,8h-2.1v6.6h2.1
		C16.8,14.6,17.7,14.3,18.2,13.7z M17.2,12.8c-0.3,0.3-0.8,0.5-1.4,0.5H15v-4h0.8c0.7,0,1.2,0.2,1.5,0.5c0.3,0.3,0.5,0.9,0.5,1.5
		C17.7,12,17.5,12.5,17.2,12.8z"/>
	<polygon points="23.9,9.3 23.9,8 19.8,8 19.8,14.6 21.1,14.6 21.1,12 23.7,12 23.7,10.7 21.1,10.7 21.1,9.3 	"/>
	<path d="M25.6,1.1H6.5c-1.1,0-2,0.9-2,2v23.4c0,1.1,0.9,2,2,2h4.4l-0.6-0.6l-0.6-0.6H6.5c-0.4,0-0.8-0.3-0.8-0.8V3.1
		c0-0.4,0.3-0.8,0.8-0.8h19.2c0.4,0,0.8,0.3,0.8,0.8v23.4c0,0.4-0.3,0.8-0.8,0.8H23l-0.6,0.6l-0.6,0.6h3.9c1.1,0,2-0.9,2-2V3.1
		C27.7,2,26.7,1.1,25.6,1.1z"/>
	<polygon points="23.1,24.7 18.9,24.7 18.9,17.8 13.2,17.8 13.2,24.6 9.1,24.5 16.2,31.6 	"/>
</g>
</svg>
